<svg xmlns="http://www.w3.org/2000/svg" style="enable-background:new 0 0 140.1 96.7" xml:space="preserve" viewBox="0 0 140.1 96.7"><path d="M79.6 23c2.4-2.4 3.9-5.8 3.9-9.5C83.5 6 77.5 0 70 0c-4.7 0-8.9 2.4-11.3 6.1-.6.6-54.3 66.8-54.8 67.6C1.5 76.1 0 79.5 0 83.2c0 7.5 6 13.5 13.5 13.5 4.7 0 8.9-2.4 11.3-6.1.6-.6 54.3-66.8 54.8-67.6zM110.7 54.4c2.4-2.4 3.9-5.8 3.9-9.5 0-7.5-6-13.5-13.5-13.5-4.7 0-8.9 2.4-11.3 6.1-.6.6-28.8 35.4-29.3 36.2-2.4 2.4-3.9 5.8-3.9 9.5 0 7.5 6 13.5 13.5 13.5 4.7 0 8.9-2.4 11.3-6.1.6-.6 28.8-35.4 29.3-36.2zM140.1 13.5c0 7.5-6 13.5-13.5 13.5s-13.5-6-13.5-13.5S119.1 0 126.6 0s13.5 6 13.5 13.5zM27 13.5a13.5 13.5 0 1 1-26.99-.01A13.5 13.5 0 0 1 27 13.5z"/></svg>