<svg xmlns="http://www.w3.org/2000/svg" width="127.5" height="127.5" style="enable-background:new 0 0 127.5 127.5" xml:space="preserve">
  <style>
    .st2{fill:#fff}
  </style>
  <path d="M113.8 86.7c-11.8 0-21.8 7.9-25.1 18.7-3.2-10.8-13.2-18.7-25.1-18.7-11.6 0-21.5 7.6-24.9 18.1-.1.2-.1.4-.1.6v-.1.1c-.1-.2-.1-.4-.1-.6-3.4-10.5-13.2-18.1-24.9-18.1-3.1 0-6 .5-8.8 1.5 9.6 23.1 32.3 39.3 58.9 39.3 26.5 0 49.3-16.2 58.9-39.3-2.7-1-5.7-1.5-8.8-1.5z" style="fill:#ffcc23"/>
  <path d="M13.7 71.7c11.8 0 21.8 7.8 25 18.6 3.2-10.8 13.2-18.6 25-18.6s21.8 7.9 25.1 18.7c3.2-10.8 13.2-18.7 25-18.7 4.6 0 8.9 1.2 12.6 3.2.6-3.6 1-7.4 1-11.2C127.5 28.5 98.9 0 63.7 0S0 28.5 0 63.7c0 3.8.4 7.6 1 11.2 3.8-2 8.1-3.2 12.7-3.2z" style="fill:#026490"/>
  <g>
    <path class="st2" d="M98.9 19.3c1.6.2 2.1 2.2.7 3.1l-53.3 35c-9.6 6.3-19.2 7-26.4 6.4-1.5-.1-1.9-2.1-.7-2.9l57.1-37.4c7.3-4.8 17.1-4.8 22.6-4.2z"/>
    <path class="st2" d="m66.8 31.7-29.4-2.6c-1.6-.1-3.2.3-4.6 1.1l-2.3 1.5L51 42.1l15.8-10.4zM70 39.4l6.3 9.5c1.2 1.8 1.5 4.1.8 6.2l-.3.9-19.6-11.2L70 39.4zM36.1 51.9l-10.9-4.8-3.7 2.5 6.1 9.3z"/>
  </g>
</svg>
